<svg xmlns="http://www.w3.org/2000/svg" viewBox="0 0 300 520" width="300" height="520">
  <!-- 原创占位插画：浅绿档「生命力少女」（剪影 + 花朵藤蔓）。可整文件替换。 -->
  <g fill="#26b268">
    <!-- 单马尾 -->
    <path d="M186 96 q56 26 52 108 q-6 60 -44 96 q30 -52 28 -104 q-2 -54 -36 -84 z"/>
    <circle cx="212" cy="88" r="18"/>
    <!-- 头 -->
    <circle cx="148" cy="140" r="58"/>
    <!-- 身体 / 短裙 -->
    <path d="M148 194 q-14 32 -14 58 l28 0 q0 -26 -14 -58 z"/>
    <path d="M148 248 q-46 12 -60 70 l120 0 q-14 -58 -60 -70 z"/>
    <!-- 腿 -->
    <rect x="128" y="318" width="16" height="96" rx="8"/>
    <rect x="154" y="318" width="16" height="96" rx="8"/>
    <ellipse cx="136" cy="420" rx="18" ry="10"/>
    <ellipse cx="162" cy="420" rx="18" ry="10"/>
  </g>
  <!-- 花朵（藤蔓 + 花冠） -->
  <g fill="#7ac943">
    <path d="M56 500 q26 -120 68 -168 q-52 40 -82 168 z"/>
    <path d="M244 500 q-22 -110 -62 -156 q48 36 76 156 z"/>
    <ellipse cx="74" cy="404" rx="26" ry="12" transform="rotate(-32 74 404)"/>
    <ellipse cx="228" cy="398" rx="26" ry="12" transform="rotate(30 228 398)"/>
  </g>
  <g fill="#7ac943">
    <circle cx="110" cy="72" r="16"/>
    <circle cx="148" cy="56" r="16"/>
    <circle cx="186" cy="72" r="16"/>
  </g>
  <g fill="#16301f">
    <circle cx="128" cy="146" r="7"/>
    <circle cx="168" cy="146" r="7"/>
    <path d="M138 168 q10 8 20 0" fill="none" stroke="#16301f" stroke-width="4" stroke-linecap="round"/>
  </g>
  <g fill="#26b268" opacity="0.45">
    <ellipse cx="112" cy="162" rx="11" ry="7"/>
    <ellipse cx="184" cy="162" rx="11" ry="7"/>
  </g>
</svg>
